<?xml version="1.0" standalone="no"?>
<!DOCTYPE svg PUBLIC "-//W3C//DTD SVG 20010904//EN"
 "http://www.w3.org/TR/2001/REC-SVG-20010904/DTD/svg10.dtd">
<svg version="1.0" xmlns="http://www.w3.org/2000/svg"
 width="1000.000000pt" height="1000.000000pt" viewBox="0 0 1000.000000 1000.000000"
 preserveAspectRatio="xMidYMid meet">
<metadata>
Created by potrace 1.14, written by Peter Selinger 2001-2017
</metadata>
<g transform="translate(0.000000,1000.000000) scale(0.100000,-0.100000)"
fill="#000000" stroke="none">
<path d="M390 9990 c-183 -38 -333 -183 -375 -362 -13 -54 -15 -223 -12 -1228
2 -1144 2 -1166 22 -1220 53 -142 158 -248 304 -304 l56 -21 1185 0 c1126 0
1188 1 1238 18 156 55 264 163 319 319 17 50 18 112 18 1233 0 1127 -1 1182
-19 1235 -54 159 -174 275 -332 320 -65 19 -110 19 -1218 19 -633 -1 -1167 -5
-1186 -9z"/>
<path d="M3825 9993 c-210 -47 -357 -197 -392 -403 -8 -46 -8 -2284 0 -2330
32 -188 170 -341 352 -391 75 -21 2356 -21 2430 0 128 36 233 118 296 230 35
63 49 106 56 176 4 33 7 566 7 1185 -1 1048 -2 1129 -18 1185 -46 155 -156
273 -307 327 l-64 23 -1170 1 c-643 1 -1179 0 -1190 -3z"/>
<path d="M7208 9981 c-157 -43 -277 -158 -335 -323 -17 -50 -18 -112 -18
-1233 0 -1121 1 -1183 18 -1233 43 -123 135 -232 238 -284 120 -60 76 -58
1344 -55 1160 2 1160 2 1216 23 161 62 274 187 314 349 13 51 15 222 15 1210
-1 1119 -1 1152 -21 1214 -39 127 -116 224 -231 289 -108 62 -72 60 -1328 61
-1071 0 -1149 -1 -1212 -18z"/>
<path d="M497 6573 c-1 -1 -27 -3 -57 -4 -195 -10 -370 -160 -425 -362 -20
-77 -20 -2336 1 -2414 51 -193 206 -333 399 -360 22 -4 553 -6 1180 -6 1069 0
1144 1 1200 18 161 48 280 165 332 325 17 52 18 127 18 1225 0 1266 2 1212
-54 1320 -64 122 -187 217 -321 246 -41 9 -337 13 -1163 13 -610 1 -1109 0
-1110 -1z"/>
<path d="M3855 6569 c-79 -10 -126 -26 -190 -64 -129 -76 -224 -223 -235 -365
-6 -76 -4 -2231 2 -2290 23 -217 212 -403 428 -420 76 -6 2242 -4 2295 2 104
12 195 58 275 138 81 81 124 166 137 275 7 51 9 2214 3 2295 -8 104 -59 209
-140 290 -63 63 -108 90 -204 123 -60 20 -79 20 -1191 21 -621 1 -1152 -2
-1180 -5z"/>
<path d="M7290 6568 c-36 -3 -82 -11 -103 -18 -104 -31 -219 -126 -271 -221
-64 -120 -60 -32 -64 -1284 -2 -776 1 -1162 8 -1209 29 -188 159 -335 346
-391 55 -17 134 -18 1214 -18 1042 -1 1161 1 1217 16 168 44 300 176 343 340
18 68 19 129 19 1197 0 638 -3 1153 -9 1189 -25 172 -167 336 -330 382 -25 7
-52 14 -60 17 -25 7 -2241 7 -2310 0z"/>
<path d="M395 3140 c-198 -41 -351 -196 -385 -391 -8 -45 -10 -405 -8 -1219
l3 -1155 27 -62 c48 -114 119 -194 221 -252 104 -59 28 -55 1297 -58 1024 -3
1172 -1 1225 12 167 43 286 152 351 321 18 47 19 103 22 1201 3 1261 4 1234
-55 1352 -36 70 -134 168 -204 204 -115 58 -91 57 -1324 56 -621 -1 -1148 -5
-1170 -9z"/>
<path d="M3850 3143 c-204 -32 -356 -165 -407 -356 -15 -56 -17 -173 -17
-1217 0 -1071 2 -1159 18 -1214 45 -152 151 -267 301 -327 l60 -24 1170 -2
c751 -2 1186 1 1215 7 179 40 332 193 371 370 10 42 13 334 13 1200 -1 1031
-2 1151 -17 1205 -45 164 -158 284 -324 343 -44 15 -146 17 -1203 18 -635 1
-1166 0 -1180 -3z"/>
<path d="M7270 3143 c-97 -11 -200 -63 -276 -139 -59 -60 -94 -118 -120 -201
-18 -55 -19 -112 -19 -1233 0 -1122 1 -1177 19 -1230 54 -159 175 -275 334
-321 62 -18 119 -18 1211 -18 937 0 1158 3 1210 14 120 27 250 125 310 236 59
111 55 29 58 1299 3 1024 1 1172 -12 1225 -42 164 -146 280 -310 346 l-60 24
-1155 1 c-635 1 -1171 -1 -1190 -3z"/>
</g>
</svg>
